<svg id="Слой_1" data-name="Слой 1" xmlns="http://www.w3.org/2000/svg" viewBox="0 0 24 16"><defs><style>.cls-1{fill:#fff;}.cls-2,.cls-3{fill:none;stroke-miterlimit:10;}.cls-2{stroke:#000;}.cls-3{stroke:#fff;}</style></defs><title>email</title><path class="cls-1" d="M25.09,4a.91.91,0,0,1,.91.91V17.09a.91.91,0,0,1-.91.91H4.91A.91.91,0,0,1,4,17.09V4.91A.91.91,0,0,1,4.91,4H25.09m0-1H4.91A1.9,1.9,0,0,0,3,4.91V17.09A1.9,1.9,0,0,0,4.91,19H25.09A1.9,1.9,0,0,0,27,17.09V4.91A1.9,1.9,0,0,0,25.09,3Z" transform="translate(-3 -3)"/><path class="cls-2" d="M26.5,18.5" transform="translate(-3 -3)"/><path class="cls-2" d="M15.64,11.42" transform="translate(-3 -3)"/><path class="cls-2" d="M15.39,11.26" transform="translate(-3 -3)"/><path class="cls-3" d="M3.82,3.71l11.44,7.46" transform="translate(-3 -3)"/><path class="cls-2" d="M3.5,18.5" transform="translate(-3 -3)"/><path class="cls-2" d="M11.12,13.53" transform="translate(-3 -3)"/><path class="cls-2" d="M14.49,11.33" transform="translate(-3 -3)"/><path class="cls-3" d="M26,3.86,14.74,11.17" transform="translate(-3 -3)"/><path class="cls-3" d="M3.8,18.2l8.7-8.7" transform="translate(-3 -3)"/><path class="cls-3" d="M26.2,18.2,17.5,9.5" transform="translate(-3 -3)"/></svg>